<svg xmlns="http://www.w3.org/2000/svg" xmlns:xlink="http://www.w3.org/1999/xlink" width="165.3" height="190" xml:space="preserve">
   <defs>
      <path id="a" d="m82.7 190 82.6-47.6V47.5L82.7 0 0 47.5v95.1z"/>
   </defs>
    <clipPath id="b">
      <use xlink:href="#a" overflow="visible" width="100%" height="100%"/>
   </clipPath>
    <path clip-path="url(#b)" fill="#21887e" d="M49.6 37.9 33 28.4v19z"/>
    <path clip-path="url(#b)" fill="#7dc9c9" d="M16.5 37.9 33 47.4v-19z"/>
    <path clip-path="url(#b)" fill="#29a769" d="M49.6 56.9 33 47.4v19z"/>
    <path clip-path="url(#b)" fill="#80bc50" d="M16.5 57 33 66.4v-19z"/>
    <path clip-path="url(#b)" fill="#73b72b" d="M49.6 75.9 33 66.4v19.1z"/>
    <path clip-path="url(#b)" fill="#b7d37c" d="M16.5 76 33 85.5v-19z"/>
    <path clip-path="url(#b)" fill="#32bad1" d="M49.6 95 33 85.5v19z"/>
    <path clip-path="url(#b)" fill="#45ad4a" d="m16.5 95 16.5 9.5v-19z"/>
    <path clip-path="url(#b)" fill="#597bb8" d="M49.6 114 33 104.5v19z"/>
    <path clip-path="url(#b)" fill="#356e49" d="m16.5 114 16.5 9.5v-19z"/>
    <path clip-path="url(#b)" fill="#209ed9" d="M49.6 133 33 123.5v19z"/>
    <path clip-path="url(#b)" fill="#213970" d="m16.5 133 16.5 9.5v-19z"/>
    <path clip-path="url(#b)" fill="#2075bb" d="M49.6 152 33 142.5v19z"/>
    <path clip-path="url(#b)" fill="#268eaa" d="m16.5 152.1 16.5 9.5v-19.1z"/>
    <path clip-path="url(#b)" fill="#597bb8" d="M49.6 171 33 161.5M66.1 9.3 82.7-.2"/>
    <path clip-path="url(#b)" fill="#2352a0" d="M82.7 18.8 66.1 9.3v19.1z"/>
    <path clip-path="url(#b)" fill="#156181" d="m49.6 18.9 16.5 9.5V9.3z"/>
    <path clip-path="url(#b)" fill="#2352a0" d="m82.7 37.9-16.6-9.5v19z"/>
    <path clip-path="url(#b)" fill="#6cc6d7" d="m49.6 37.9 16.5 9.5v-19z"/>
    <path clip-path="url(#b)" fill="#1d4588" d="m82.7 56.9-16.6-9.5v19z"/>
    <path clip-path="url(#b)" fill="#268eaa" d="m49.6 56.9 16.5 9.5v-19z"/>
    <path clip-path="url(#b)" fill="#176597" d="m82.7 75.9-16.6-9.5v19z"/>
    <path clip-path="url(#b)" fill="#222e59" d="m49.6 75.9 16.5 9.5v-19z"/>
    <path clip-path="url(#b)" fill="#1a6b9b" d="m82.7 94.9-16.6-9.5v19z"/>
    <path clip-path="url(#b)" fill="#90c7e9" d="m49.6 95 16.5 9.5V85.4z"/>
    <path clip-path="url(#b)" fill="#597bb8" d="m82.7 113.9-16.6-9.4v19z"/>
    <path clip-path="url(#b)" fill="#29327a" d="m49.6 114 16.5 9.5v-19z"/>
    <path clip-path="url(#b)" fill="#597bb8" d="m82.7 133-16.6-9.5v19z"/>
    <path clip-path="url(#b)" fill="#2352a0" d="m49.6 133 16.5 9.5v-19z"/>
    <path clip-path="url(#b)" fill="#2ab0ae" d="m82.7 152-16.6-9.5v19z"/>
    <path clip-path="url(#b)" fill="#1d4588" d="m49.6 152 16.5 9.5v-19z"/>
    <path clip-path="url(#b)" fill="#4bbbbc" d="m82.7 171-16.6-9.5v19z"/>
    <path clip-path="url(#b)" fill="#85bedc" d="M66.1 180.5v-19L49.6 171"/>
    <path clip-path="url(#b)" fill="#222e59" d="M66.1 199.6v-19.1"/>
    <path clip-path="url(#b)" fill="#2eb4a9" d="M16.5 57 0 47.5v19z"/>
    <path clip-path="url(#b)" fill="#7dc9c9" d="M16.5 76 0 66.5v19z"/>
    <path clip-path="url(#b)" fill="#1366b0" d="M16.5 95 0 85.5v19z"/>
    <path clip-path="url(#b)" fill="#91b523" d="M16.5 114 0 104.5v19z"/>
    <path clip-path="url(#b)" fill="#00b4be" d="M16.5 133 0 123.5v19.1z"/>
    <path clip-path="url(#b)" fill="#db2d88" d="m148.8 56.8 16.5 9.5v-19z"/>
    <path clip-path="url(#b)" fill="#d61e5f" d="m148.8 75.9 16.5 9.5V66.3z"/>
    <path clip-path="url(#b)" fill="#f49a70" d="m148.8 94.9 16.5 9.5v-19z"/>
    <path clip-path="url(#b)" fill="#ea5428" d="m148.8 113.9 16.5 9.5v-19z"/>
    <path clip-path="url(#b)" fill="#d54728" d="m148.8 132.9 16.5 9.5v-19z"/>
    <path clip-path="url(#b)" fill="#222e59" d="m82.6-.2 16.6 9.5"/>
    <path clip-path="url(#b)" fill="#522776" d="M115.7 18.8 99.2 9.3v19.1z"/>
    <path clip-path="url(#b)" fill="#352e87" d="m82.6 18.9 16.6 9.5V9.3zM115.7 37.9l-16.5-9.5v19z"/>
    <path clip-path="url(#b)" fill="#1e82b6" d="m82.6 37.9 16.6 9.5v-19z"/>
    <path clip-path="url(#b)" fill="#597bb8" d="m115.7 56.9-16.5-9.5v19z"/>
    <path clip-path="url(#b)" fill="#1e82b6" d="m82.6 56.9 16.6 9.5v-19z"/>
    <path clip-path="url(#b)" fill="#597bb8" d="m115.7 75.9-16.5-9.5v19z"/>
    <path clip-path="url(#b)" fill="#1e6d9b" d="m82.6 75.9 16.6 9.5v-19z"/>
    <path clip-path="url(#b)" fill="#31a7df" d="m115.7 94.9-16.5-9.5v19z"/>
    <path clip-path="url(#b)" fill="#156181" d="m82.6 95 16.6 9.4v-19z"/>
    <path clip-path="url(#b)" fill="#597bb8" d="m115.7 113.9-16.5-9.5v19.1z"/>
    <path clip-path="url(#b)" fill="#bbdaee" d="m82.6 114 16.6 9.5v-19z"/>
    <path clip-path="url(#b)" fill="#597bb8" d="m115.7 133-16.5-9.5v19z"/>
    <path clip-path="url(#b)" fill="#222e59" d="m82.6 133 16.6 9.5v-19z"/>
    <path clip-path="url(#b)" fill="#0b72b8" d="m115.7 152-16.5-9.5v19z"/>
    <path clip-path="url(#b)" fill="#036bb2" d="m82.6 152 16.6 9.5v-19z"/>
    <path clip-path="url(#b)" fill="#3e768d" d="m115.7 171-16.5-9.5v19z"/>
    <path clip-path="url(#b)" fill="#0b557b" d="m82.6 171 16.6 9.5v-19z"/>
    <path clip-path="url(#b)" fill="#e3afd0" d="m148.8 37.8-16.5-9.5v19z"/>
    <path clip-path="url(#b)" fill="#d47cb1" d="m115.7 37.8 16.6 9.5v-19z"/>
    <path clip-path="url(#b)" fill="#d54728" d="m148.8 56.8-16.5-9.5v19.1z"/>
    <path clip-path="url(#b)" fill="#e72970" d="m115.7 56.9 16.6 9.5V47.3z"/>
    <path clip-path="url(#b)" fill="#f4a18b" d="m148.8 75.9-16.5-9.5v19z"/>
    <path clip-path="url(#b)" fill="#ae2d88" d="m115.7 75.9 16.6 9.5v-19z"/>
    <path clip-path="url(#b)" fill="#d47cb1" d="m148.8 94.9-16.5-9.5v19z"/>
    <path clip-path="url(#b)" fill="#34348b" d="m115.7 94.9 16.6 9.5v-19z"/>
    <path clip-path="url(#b)" fill="#ea4d81" d="m148.8 113.9-16.5-9.5v19z"/>
    <path clip-path="url(#b)" fill="#59347c" d="m115.7 113.9 16.6 9.5v-19z"/>
    <path clip-path="url(#b)" fill="#c34d96" d="m148.8 132.9-16.5-9.5v19z"/>
    <path clip-path="url(#b)" fill="#ad2986" d="m115.7 133 16.6 9.4v-19z"/>
    <path clip-path="url(#b)" fill="#c5579c" d="m148.8 151.9-16.5-9.4v19z"/>
    <path clip-path="url(#b)" fill="#7c4d99" d="m115.7 152 16.6 9.5v-19z"/>
    <path clip-path="url(#b)" fill="#80bc50" d="m66.1 28.4-16.5-9.5v19z"/>
    <path clip-path="url(#b)" fill="#45ad4a" d="m33 28.4 16.6 9.5v-19z"/>
    <path clip-path="url(#b)" fill="#156181" d="m66.1 47.4-16.5-9.5v19z"/>
    <path clip-path="url(#b)" fill="#21887e" d="m33 47.4 16.6 9.5v-19z"/>
    <path clip-path="url(#b)" fill="#597bb8" d="m66.1 66.4-16.5-9.5v19z"/>
    <path clip-path="url(#b)" fill="#cbd622" d="m33 66.4 16.6 9.5v-19z"/>
    <path clip-path="url(#b)" fill="#e0ecf5" d="m66.1 85.4-16.5-9.5V95z"/>
    <path clip-path="url(#b)" fill="#268eaa" d="M33 85.5 49.6 95V75.9z"/>
    <path clip-path="url(#b)" fill="#1e82b6" d="M66.1 104.5 49.6 95v19z"/>
    <path clip-path="url(#b)" fill="#2ab0ae" d="m33 104.5 16.6 9.5V95z"/>
    <path clip-path="url(#b)" fill="#2aadc9" d="M66.1 123.5 49.6 114v19z"/>
    <path clip-path="url(#b)" fill="#268eaa" d="m33 123.5 16.6 9.5v-19z"/>
    <path clip-path="url(#b)" fill="#597bb8" d="M66.1 142.5 49.6 133v19z"/>
    <path clip-path="url(#b)" fill="#222e59" d="m33 142.5 16.6 9.5v-19z"/>
    <path clip-path="url(#b)" fill="#a9cee1" d="M66.1 161.5 49.6 152v19z"/>
    <path clip-path="url(#b)" fill="#97c5df" d="m33 161.6 16.6 9.4v-19z"/>
    <path clip-path="url(#b)" fill="#2857a4" d="M99.2 9.3 82.7-.2v19z"/>
    <path clip-path="url(#b)" fill="#2276bb" d="m66.1 9.3 16.6 9.5v-19z"/>
    <path clip-path="url(#b)" fill="#213970" d="m99.2 28.3-16.5-9.5v19.1z"/>
    <path clip-path="url(#b)" fill="#222e59" d="m66.1 28.4 16.6 9.5V18.8z"/>
    <path clip-path="url(#b)" fill="#29327a" d="m99.2 47.3-16.5-9.4v19z"/>
    <path clip-path="url(#b)" fill="#1a4080" d="m66.1 47.4 16.6 9.5v-19z"/>
    <path clip-path="url(#b)" fill="#1f7ebd" d="m99.2 66.4-16.5-9.5v19z"/>
    <path clip-path="url(#b)" fill="#209ed9" d="m66.1 66.4 16.6 9.5v-19z"/>
    <path clip-path="url(#b)" fill="#6499af" d="m99.2 85.4-16.5-9.5v19z"/>
    <path clip-path="url(#b)" fill="#bfd6e8" d="m66.1 85.4 16.6 9.5v-19z"/>
    <path clip-path="url(#b)" fill="#2352a0" d="m99.2 104.4-16.5-9.5v19z"/>
    <path clip-path="url(#b)" fill="#1c77ab" d="m66.1 104.4 16.6 9.5v-19z"/>
    <path clip-path="url(#b)" fill="#0972b8" d="m99.2 123.4-16.5-9.5V133z"/>
    <path clip-path="url(#b)" fill="#293276" d="m66.1 123.5 16.6 9.5v-19.1z"/>
    <path clip-path="url(#b)" fill="#3e768d" d="M99.2 142.5 82.7 133v19z"/>
    <path clip-path="url(#b)" fill="#165385" d="m66.1 142.5 16.6 9.5v-19z"/>
    <path clip-path="url(#b)" fill="#213970" d="M99.2 161.5 82.7 152v19z"/>
    <path clip-path="url(#b)" fill="#2aadc9" d="m66.1 161.5 16.6 9.5v-19z"/>
    <path clip-path="url(#b)" fill="#b1c2e1" d="M99.2 180.5 82.7 171v19z"/>
    <path clip-path="url(#b)" fill="#0b72b8" d="m66.1 180.5 16.6 9.5v-19z"/>
    <path clip-path="url(#b)" fill="#b9ddd5" d="m33.1 47.4-16.6-9.5v19z"/>
    <path clip-path="url(#b)" fill="#73c3b5" d="m0 47.5 16.5 9.4v-19z"/>
    <path clip-path="url(#b)" fill="#8fd0d6" d="M33.1 66.4 16.5 57v19z"/>
    <path clip-path="url(#b)" fill="#2baa98" d="M0 66.5 16.5 76V57z"/>
    <path clip-path="url(#b)" fill="#80bc50" d="M33.1 85.5 16.5 76v19z"/>
    <path clip-path="url(#b)" fill="#32bad1" d="M0 85.5 16.5 95V76z"/>
    <path clip-path="url(#b)" fill="#29a769" d="M33.1 104.5 16.5 95v19z"/>
    <path clip-path="url(#b)" fill="#21887e" d="m0 104.5 16.5 9.5V95z"/>
    <path clip-path="url(#b)" fill="#156181" d="M33.1 123.5 16.5 114v19z"/>
    <path clip-path="url(#b)" fill="#1a7145" d="m0 123.5 16.5 9.5v-19z"/>
    <path clip-path="url(#b)" fill="#21887e" d="M33.1 142.5 16.5 133v19.1z"/>
    <path clip-path="url(#b)" fill="#25573d" d="m0 142.6 16.5 9.5V133z"/>
    <path clip-path="url(#b)" fill="#b2388d" d="m132.3 28.3-16.6-9.5v19z"/>
    <path clip-path="url(#b)" fill="#a22680" d="m99.2 28.4 16.5 9.4v-19z"/>
    <path clip-path="url(#b)" fill="#ed81a9" d="m132.3 47.3-16.6-9.4v19z"/>
    <path clip-path="url(#b)" fill="#4f3b90" d="m99.2 47.4 16.5 9.5v-19z"/>
    <path clip-path="url(#b)" fill="#a22680" d="m132.3 66.4-16.6-9.5v19z"/>
    <path clip-path="url(#b)" fill="#036bb2" d="m99.2 66.4 16.5 9.5v-19z"/>
    <path clip-path="url(#b)" fill="#83368c" d="m132.3 85.4-16.6-9.5v19z"/>
    <path clip-path="url(#b)" fill="#3d2871" d="m99.2 85.4 16.5 9.5v-19z"/>
    <path clip-path="url(#b)" fill="#8d7aa5" d="m132.3 104.4-16.6-9.5v19z"/>
    <path clip-path="url(#b)" fill="#1c77ab" d="m99.2 104.4 16.5 9.5v-19z"/>
    <path clip-path="url(#b)" fill="#6b3f91" d="m132.3 123.4-16.6-9.5V133z"/>
    <path clip-path="url(#b)" fill="#502f88" d="m99.2 123.5 16.5 9.5v-19.1z"/>
    <path clip-path="url(#b)" fill="#1366b0" d="m132.3 142.5-16.6-9.5v19z"/>
    <path clip-path="url(#b)" fill="#805ba2" d="m99.2 142.5 16.5 9.5v-19z"/>
    <path clip-path="url(#b)" fill="#4d4e9c" d="m132.3 161.5-16.6-9.5v19z"/>
    <path clip-path="url(#b)" fill="#4f609a" d="m99.2 161.5 16.5 9.5v-19z"/>
    <path clip-path="url(#b)" fill="#e11883" d="m165.4 47.3-16.6-9.5v19z"/>
    <path clip-path="url(#b)" fill="#d61e5f" d="m132.3 47.3 16.5 9.5v-19z"/>
    <path clip-path="url(#b)" fill="#e9427b" d="m165.4 66.3-16.6-9.5v19.1z"/>
    <path clip-path="url(#b)" fill="#ed6d24" d="m132.3 66.4 16.5 9.5V56.8z"/>
    <path clip-path="url(#b)" fill="#f6a861" d="m165.4 85.4-16.6-9.5v19z"/>
    <path clip-path="url(#b)" fill="#f9b433" d="m132.3 85.4 16.5 9.5v-19z"/>
    <path clip-path="url(#b)" fill="#f6a861" d="m165.4 104.4-16.6-9.5v19z"/>
    <path clip-path="url(#b)" fill="#ce94b4" d="m132.3 104.4 16.5 9.5v-19z"/>
    <path clip-path="url(#b)" fill="#f08223" d="m165.4 123.4-16.6-9.5v19z"/>
    <path clip-path="url(#b)" fill="#ed81a9" d="m132.3 123.4 16.5 9.5v-19z"/>
    <path clip-path="url(#b)" fill="#e25a2a" d="m165.4 142.4-16.6-9.5v19z"/>
    <path clip-path="url(#b)" fill="#e32c4b" d="m132.3 142.4 16.5 9.5v-19z"/>
    <path fill="#fff" d="M102.4 54.4c-8.8-8.8-17.1-17.1-19.6-26.5-2.5 9.4-10.9 17.8-19.6 26.5-13.1 13.1-28 28-28 50.4 0 26.3 21.4 47.7 47.7 47.7 26.3 0 47.7-21.4 47.7-47.7-.1-22.3-15-37.2-28.2-50.4m-42.8 54.8c-1.5 1.9-3 4.2-3.8 5.9-.1.3-.5.6-.8.7h-.4c-1.1-.1-2.3-2.1-2.3-2.1-.3-.5-.6-1-.9-1.6-.1-.1-.1-.3-.2-.4-2.7-6.4-.4-15.3-.4-15.3h-.1c1-4.1 2.9-8.1 5.7-12.3 1.5-2.3 3.3-4.6 5.2-6.8l2.3 2.2 10.7 10.9c.4.5.4 1.2 0 1.6l-11.1 12.4zm23.7 31.2c-7.2 0-13.4-4.7-15.5-11.2-1.9-5.3-.8-11.3 3.3-16.2 3.5-4.1 7.7-8.2 12.3-13.5 5.5 5.9 9 9.9 12.5 14.2.3.3.5.7.7 1.1 1.8 2.7 2.9 5.9 2.9 9.3.2 9-7.1 16.3-16.2 16.3m31-26.2c-.2.4-.6 1.2-1.5 1.4h-.2c-.9-.2-1.5-1.3-1.5-1.3-2.8-4.4-7.8-10.3-9.7-12L97 97.7l-14.5-15c-2.4-2.4-6.9-6.6-8.7-8.9-.1-.1-.1-.2-.2-.4-.5-.8-.9-1.5-1.1-2.3 0-.1 0-.3-.1-.4-.3-1.8.1-3.2.6-4.4.4-.9 1-1.7 1.6-2.3 2.8-2.8 5.6-5.6 8.3-8.6 2.9 3.3 6.1 6.4 9.2 9.5 6.2 6.1 12.5 12.5 17.1 19.4 4.6 6.9 6.7 13.4 6.7 20.5-.2 3.3-.7 6.4-1.6 9.4"/>
</svg>